<svg width="64" height="64" viewBox="0 0 64 64" fill="none" xmlns="http://www.w3.org/2000/svg">
<path d="M47 47C47 50.89 46.58 53.35 45.81 54.85C43.53 59.34 38.2 55.33 32 55.33C25.8 55.33 20.47 59.33 18.19 54.85C17.42 53.35 17 50.85 17 47C17 31.53 23.72 19 32 19C40.28 19 47 31.55 47 47Z" fill="#FCB2AF"/>
<path d="M54.5 49C53.33 54.57 50.17 55.36 45.81 54.87C46.58 53.37 47 50.87 47 47.02C47 31.55 40.28 19.02 32 19.02C23.72 19.02 17 31.55 17 47C17 50.89 17.42 53.35 18.19 54.85C13.83 55.34 10.67 54.55 9.5 48.98H11C11.5304 48.98 12.0391 48.7693 12.4142 48.3942C12.7893 48.0191 13 47.5104 13 46.98V41C13 40.4696 12.7893 39.9609 12.4142 39.5858C12.0391 39.2107 11.5304 39 11 39H9.87C10.5086 39.0065 11.1269 38.776 11.6053 38.353C12.0837 37.93 12.3883 37.3446 12.46 36.71L13 31.56C13.005 31.4767 13.005 31.3933 13 31.31C12.988 30.8135 12.8324 30.331 12.552 29.9211C12.2716 29.5111 11.8784 29.1912 11.42 29C11.5529 29.0153 11.6871 29.0153 11.82 29C12.2338 28.9968 12.6389 28.8805 12.9914 28.6637C13.3439 28.4469 13.6304 28.1378 13.82 27.77L16.52 22.7C16.7745 22.2091 16.8576 21.6472 16.7561 21.1037C16.6546 20.5601 16.3744 20.0661 15.96 19.7C16.3324 19.9197 16.7576 20.0338 17.19 20.03C17.5444 20.0275 17.8941 19.9485 18.2151 19.7984C18.5361 19.6482 18.8209 19.4304 19.05 19.16L22.38 15.24C22.6721 14.9059 22.8704 14.5004 22.9547 14.0648C23.039 13.6291 23.0064 13.1789 22.86 12.76L23.19 12.56C23.5658 12.7533 23.9896 12.8332 24.41 12.79L30 12.2C30.549 12.1522 31.0598 11.8992 31.4305 11.4914C31.8013 11.0836 32.0046 10.5511 32 10C32.0004 10.5476 32.206 11.0752 32.5762 11.4788C32.9465 11.8823 33.4544 12.1325 34 12.18L39.62 12.74C40.0404 12.7832 40.4642 12.7033 40.84 12.51L41.17 12.71C41.0236 13.1289 40.991 13.5791 41.0753 14.0148C41.1596 14.4504 41.3579 14.8559 41.65 15.19L45 19.13C45.2291 19.4004 45.5139 19.6182 45.8349 19.7684C46.1559 19.9185 46.5056 19.9975 46.86 20C47.2618 19.988 47.654 19.8745 48 19.67C47.5856 20.0361 47.3054 20.5301 47.2039 21.0737C47.1024 21.6172 47.1855 22.1791 47.44 22.67L50.14 27.74C50.3296 28.1078 50.6161 28.4169 50.9686 28.6337C51.3211 28.8505 51.7262 28.9668 52.14 28.97C52.2729 28.9853 52.4071 28.9853 52.54 28.97C52.0845 29.1693 51.6965 29.4964 51.4232 29.9117C51.1498 30.3271 51.0028 30.8128 51 31.31C50.995 31.3933 50.995 31.4767 51 31.56L51.53 36.71C51.6019 37.3463 51.9079 37.9331 52.3884 38.3564C52.869 38.7796 53.4897 39.009 54.13 39H53C52.4696 39 51.9609 39.2107 51.5858 39.5858C51.2107 39.9609 51 40.4696 51 41V47C51 47.5304 51.2107 48.0391 51.5858 48.4142C51.9609 48.7893 52.4696 49 53 49H54.5Z" fill="#EC605A"/>
<path d="M32.0001 9.19V10C31.9997 10.5476 31.7941 11.0752 31.4239 11.4788C31.0536 11.8823 30.5457 12.1325 30.0001 12.18L24.3801 12.74C23.857 12.7682 23.3411 12.6081 22.926 12.2885C22.511 11.9689 22.2242 11.5112 22.1177 10.9982C22.0113 10.4853 22.0922 9.95123 22.3458 9.49287C22.5995 9.03452 23.009 8.68226 23.5001 8.50001L26.2801 7.57001C27.4184 7.19134 28.6104 6.99887 29.8101 7.00001C30.3909 7.00001 30.948 7.23074 31.3587 7.64144C31.7694 8.05215 32.0001 8.60918 32.0001 9.19Z" fill="#FCB2AF"/>
<path d="M13 31.3105C13.005 31.3937 13.005 31.4772 13 31.5605L12.47 36.7105C12.3981 37.3468 12.0921 37.9336 11.6116 38.3568C11.1311 38.7801 10.5103 39.0095 9.87003 39.0005C9.64362 39.0015 9.41815 38.9712 9.20003 38.9105C8.60823 38.7628 8.08862 38.4086 7.73478 37.9117C7.38094 37.4149 7.21613 36.8081 7.27003 36.2005L7.80003 31.0605C7.87162 30.425 8.17579 29.8385 8.65397 29.4138C9.13215 28.9892 9.75053 28.7565 10.39 28.7605C10.5664 28.7452 10.7437 28.7452 10.92 28.7605C11.0152 28.8091 11.116 28.846 11.22 28.8705H11.4C11.8826 29.067 12.2941 29.4056 12.5799 29.8414C12.8656 30.2772 13.0122 30.7895 13 31.3105Z" fill="#FCB2AF"/>
<path d="M11 39H9C7.89543 39 7 39.8954 7 41V47C7 48.1046 7.89543 49 9 49H11C12.1046 49 13 48.1046 13 47V41C13 39.8954 12.1046 39 11 39Z" fill="#FCB2AF"/>
<path d="M32 51C31.7348 51 31.4804 50.8946 31.2929 50.7071C31.1054 50.5196 31 50.2652 31 50V25C31 24.7348 31.1054 24.4804 31.2929 24.2929C31.4804 24.1054 31.7348 24 32 24C32.2652 24 32.5196 24.1054 32.7071 24.2929C32.8946 24.4804 33 24.7348 33 25V50C33 50.2652 32.8946 50.5196 32.7071 50.7071C32.5196 50.8946 32.2652 51 32 51Z" fill="#EC605A"/>
<path d="M16.81 21.5397C16.8102 21.9443 16.7106 22.3428 16.52 22.6997L13.82 27.7697C13.6304 28.1376 13.3438 28.4466 12.9913 28.6634C12.6388 28.8802 12.2338 28.9965 11.82 28.9997C11.6871 29.015 11.5529 29.015 11.42 28.9997L11.25 28.9397L10.94 28.8497C10.641 28.7066 10.3743 28.5044 10.1558 28.2552C9.93729 28.006 9.77162 27.7151 9.66879 27.4001C9.56595 27.0851 9.5281 26.7524 9.55753 26.4224C9.58695 26.0923 9.68303 25.7716 9.83996 25.4797L12.53 20.4097C12.7221 20.044 13.0092 19.7367 13.3612 19.5203C13.7131 19.3038 14.1168 19.1862 14.53 19.1797C14.9202 19.1781 15.3037 19.2817 15.64 19.4797C15.6988 19.5351 15.7624 19.5853 15.83 19.6297L15.93 19.6897C16.2 19.9176 16.4181 20.2005 16.5699 20.5196C16.7217 20.8387 16.8035 21.1865 16.81 21.5397Z" fill="#FCB2AF"/>
<path d="M22.9999 13.5504C23.0001 14.1604 22.7799 14.7499 22.3799 15.2104L19.0499 19.1304C18.8209 19.4008 18.5361 19.6186 18.215 19.7687C17.894 19.9189 17.5443 19.9979 17.1899 20.0004C16.7711 19.997 16.3606 19.8832 15.9999 19.6704L15.9099 19.6004L15.7099 19.4604C15.1862 19.0161 14.8604 18.382 14.8041 17.6975C14.7479 17.013 14.9658 16.3342 15.4099 15.8104L18.7499 11.8904C19.0314 11.5542 19.3986 11.3005 19.8126 11.1561C20.2267 11.0117 20.672 10.982 21.1015 11.0701C21.531 11.1583 21.9287 11.361 22.2524 11.6568C22.576 11.9526 22.8136 12.3305 22.9399 12.7504C23.0025 13.0121 23.0228 13.2822 22.9999 13.5504Z" fill="#FCB2AF"/>
<path d="M42.0001 10.58C42.0002 10.8862 41.9362 11.1891 41.812 11.469C41.6878 11.749 41.5063 11.9998 41.2792 12.2052C41.0521 12.4106 40.7844 12.5662 40.4935 12.6617C40.2025 12.7573 39.8948 12.7908 39.5901 12.76L34.0001 12.2C33.4511 12.1522 32.9402 11.8992 32.5695 11.4914C32.1988 11.0836 31.9955 10.5511 32.0001 10V9.19C32.0001 8.60918 32.2308 8.05215 32.6415 7.64144C33.0522 7.23074 33.6093 7.00001 34.1901 7.00001C35.3897 6.99887 36.5817 7.19134 37.7201 7.57001L40.5001 8.50001C40.937 8.64505 41.3171 8.92409 41.5864 9.29749C41.8556 9.67089 42.0004 10.1196 42.0001 10.58Z" fill="#FCB2AF"/>
<path d="M54.8001 38.9101C54.582 38.9708 54.3565 39.0011 54.1301 39.0001C53.4915 39.0066 52.8732 38.7761 52.3948 38.3531C51.9164 37.9301 51.6118 37.3447 51.5401 36.7101L51.0001 31.5601C50.9951 31.4769 50.9951 31.3934 51.0001 31.3101C51.0121 30.8136 51.1677 30.3312 51.4481 29.9212C51.7285 29.5112 52.1217 29.1913 52.5801 29.0001H52.7601C52.856 28.9744 52.9496 28.941 53.0401 28.9001C53.2164 28.8849 53.3937 28.8849 53.5701 28.9001C54.2096 28.8961 54.828 29.1288 55.3061 29.5535C55.7843 29.9781 56.0885 30.5646 56.1601 31.2001L56.6901 36.3401C56.7124 36.9192 56.5377 37.4887 56.1943 37.9555C55.851 38.4224 55.3595 38.7589 54.8001 38.9101Z" fill="#FCB2AF"/>
<path d="M55 39H53C51.8954 39 51 39.8954 51 41V47C51 48.1046 51.8954 49 53 49H55C56.1046 49 57 48.1046 57 47V41C57 39.8954 56.1046 39 55 39Z" fill="#FCB2AF"/>
<path d="M53.0799 28.8097L52.7899 28.8897L52.6199 28.9497C52.487 28.965 52.3528 28.965 52.2199 28.9497C51.8061 28.9464 51.401 28.8301 51.0485 28.6133C50.696 28.3965 50.4095 28.0875 50.2199 27.7197L47.5199 22.6497C47.2654 22.1588 47.1823 21.5969 47.2838 21.0533C47.3853 20.5098 47.6655 20.0157 48.0799 19.6497L48.1799 19.5897C48.2475 19.5453 48.3111 19.4951 48.3699 19.4397C48.7062 19.2417 49.0897 19.138 49.4799 19.1397C49.893 19.1462 50.2967 19.2638 50.6487 19.4802C51.0006 19.6967 51.2877 20.0039 51.4799 20.3697L54.1699 25.4397C54.3272 25.7309 54.4238 26.0511 54.4539 26.3807C54.484 26.7103 54.447 27.0427 54.3452 27.3576C54.2433 27.6726 54.0787 27.9636 53.8612 28.2132C53.6437 28.4628 53.378 28.6657 53.0799 28.8097Z" fill="#FCB2AF"/>
<path d="M48.37 19.4399L48.17 19.5799L48.08 19.6499C47.7076 19.8696 47.2824 19.9837 46.85 19.9799C46.4988 19.9785 46.152 19.9019 45.8329 19.7552C45.5138 19.6086 45.2298 19.3954 45 19.1299L41.67 15.2099C41.3779 14.8758 41.1796 14.4703 41.0953 14.0347C41.011 13.599 41.0437 13.1488 41.19 12.7299C41.3163 12.31 41.5539 11.9321 41.8776 11.6363C42.2012 11.3405 42.5989 11.1378 43.0284 11.0496C43.4579 10.9615 43.9033 10.9912 44.3173 11.1356C44.7313 11.28 45.0985 11.5337 45.38 11.8699L48.72 15.7899C48.937 16.0524 49.1002 16.3551 49.2 16.6807C49.2999 17.0063 49.3346 17.3484 49.3021 17.6875C49.2696 18.0265 49.1705 18.3558 49.0106 18.6565C48.8506 18.9572 48.633 19.2234 48.37 19.4399Z" fill="#FCB2AF"/>
</svg>
