<svg width="79" height="30" viewBox="0 0 79 30" fill="none" xmlns="http://www.w3.org/2000/svg">
<path fill-rule="evenodd" clip-rule="evenodd" d="M22.0823 5.76771C20.8693 4.0214 19.8614 3.27418 18.4671 3.42358C17.8179 3.49312 17.2899 3.84317 16.5221 4.46163C16.4823 4.49372 16.4405 4.5276 16.397 4.56288C16.0764 4.82293 15.6619 5.15904 15.2386 5.41489C14.7294 5.72272 14.0263 6.03259 13.1677 5.98489C12.637 5.95541 12.1896 5.76855 11.8735 5.60615C11.5522 5.44111 11.243 5.23487 10.9866 5.05899C10.8965 4.99721 10.8089 4.93654 10.723 4.87702C10.2747 4.56642 9.87148 4.28703 9.391 4.04409C8.39539 3.54071 7.05656 3.18869 4.92644 4.12032C3.89905 4.56966 3.60651 5.02003 3.49905 5.30263C3.3689 5.64489 3.35618 6.14602 3.5591 6.93148C3.71853 7.54864 3.95579 8.15709 4.22523 8.84804C4.30742 9.05883 4.39261 9.27729 4.47949 9.50602C4.80269 10.3568 5.20912 11.4905 5.1761 12.5799C5.13716 13.8651 4.90137 14.9798 4.70061 15.9289C4.65326 16.1527 4.60786 16.3674 4.56744 16.5729C4.35194 17.6687 4.2091 18.7575 4.39257 20.2578C4.56871 21.6982 5.24689 23.4206 6.10243 24.781C6.52672 25.4557 6.95222 25.9728 7.31465 26.2992C7.36952 26.3486 7.41897 26.3901 7.46305 26.425C7.5288 26.3435 7.60402 26.2436 7.68842 26.1229C8.12035 25.5053 8.59193 24.6371 9.10315 23.6577C9.1835 23.5038 9.26508 23.3466 9.3475 23.1878C9.76248 22.3881 10.1988 21.5474 10.6063 20.8767C10.8504 20.4748 11.1286 20.0582 11.4327 19.7173C11.6667 19.4549 12.2171 18.88 13.051 18.7758C14.0484 18.6511 14.7551 19.2741 15.0142 19.5216C15.3623 19.8541 15.6742 20.2758 15.9392 20.6744C16.477 21.4834 17.0465 22.5463 17.5636 23.5179C17.5934 23.5739 17.6231 23.6296 17.6526 23.685C18.1488 24.6177 18.5999 25.4657 19.0007 26.105C19.1171 25.9478 19.2462 25.7581 19.3875 25.5324C20.0347 24.4989 20.7376 23.041 21.5093 21.3691C22.8945 18.3677 23.399 13.8806 23.4823 11.2984C23.5586 8.93117 23.1117 7.24988 22.0823 5.76771ZM18.4874 26.6644C18.4874 26.6641 18.4913 26.6614 18.4992 26.6572C18.4912 26.6626 18.4873 26.6647 18.4874 26.6644ZM19.518 26.8196C19.5193 26.8208 19.52 26.8214 19.52 26.8214C19.52 26.8214 19.5193 26.8209 19.518 26.8196ZM7.18583 26.7147C7.18588 26.7143 7.19117 26.7101 7.20156 26.7036C7.19099 26.7119 7.18579 26.7152 7.18583 26.7147ZM18.1045 0.0394298C21.4786 -0.32208 23.5193 1.87038 24.8777 3.82614C26.4195 6.04604 26.978 8.49602 26.884 11.4081C26.797 14.1052 26.2797 19.155 24.5995 22.7954C23.8384 24.4444 23.0513 26.0944 22.2722 27.3387C21.8844 27.958 21.448 28.5603 20.9594 29.026C20.4993 29.4644 19.7643 30 18.7969 30C18.2757 30 17.8698 29.8002 17.623 29.6425C17.3682 29.4797 17.1615 29.2843 17.0044 29.1161C16.6911 28.7806 16.4009 28.3625 16.146 27.9591C15.6684 27.2029 15.152 26.2318 14.6701 25.3256C14.6329 25.2557 14.5959 25.1861 14.5592 25.117C14.1198 24.2916 13.712 23.5346 13.3437 22.9339C13.0497 23.4443 12.734 24.052 12.3867 24.7207C12.2999 24.8878 12.2112 25.0586 12.1204 25.2326C11.6204 26.1904 11.0542 27.2488 10.4777 28.0734C10.1905 28.4839 9.84999 28.9116 9.45792 29.2527C9.09291 29.5701 8.4692 30 7.64213 30C6.55393 30 5.64711 29.3776 5.03723 28.8285C4.37253 28.2299 3.75494 27.4414 3.22128 26.5929C2.16094 24.9068 1.26383 22.7122 1.01422 20.6709C0.771932 18.6896 0.97238 17.2154 1.2279 15.9161C1.28462 15.6277 1.34091 15.3593 1.39461 15.1032C1.58635 14.1888 1.74523 13.4312 1.77415 12.4768C1.78371 12.1612 1.6475 11.6352 1.2978 10.7146C1.23691 10.5543 1.16942 10.3818 1.09826 10.1998C0.817451 9.48187 0.479446 8.61766 0.263768 7.78279C-0.011719 6.71641 -0.178106 5.39696 0.31778 4.0929C0.836357 2.72918 1.94957 1.70749 3.56261 1.00201C6.71335 -0.375999 9.11693 0.0917054 10.9267 1.00674C11.6369 1.3658 12.2558 1.7965 12.7011 2.10637C12.7764 2.15872 12.8467 2.20762 12.9116 2.25215C13.1286 2.40098 13.2749 2.49475 13.3839 2.55487C13.409 2.54213 13.4402 2.525 13.4781 2.50211C13.6873 2.37566 13.9057 2.19941 14.263 1.91114C14.3026 1.87919 14.3439 1.84587 14.3871 1.81108C15.1519 1.19499 16.3694 0.225333 18.1045 0.0394298ZM13.3006 2.59013C13.3006 2.59008 13.3019 2.58972 13.3042 2.58924C13.3018 2.58996 13.3006 2.59019 13.3006 2.59013ZM13.4938 2.60907C13.4959 2.60976 13.497 2.61017 13.497 2.6102C13.497 2.61023 13.496 2.60989 13.4938 2.60907ZM14.0354 21.9206C14.0353 21.922 14.0241 21.9336 14.0019 21.9511C14.0243 21.9278 14.0354 21.9191 14.0354 21.9206ZM12.6591 21.9787C12.6336 21.9605 12.6204 21.9481 12.6201 21.9464C12.6199 21.9447 12.6327 21.9538 12.6591 21.9787Z" fill="black"/>
<path d="M11.6518 9.4576C11.6518 10.1628 11.0801 10.7345 10.3748 10.7345C9.6696 10.7345 9.0979 10.1628 9.0979 9.4576C9.0979 8.75237 9.6696 8.18066 10.3748 8.18066C11.0801 8.18066 11.6518 8.75237 11.6518 9.4576Z" fill="black"/>
<path d="M18.4637 9.4576C18.4637 10.1628 17.892 10.7345 17.1868 10.7345C16.4816 10.7345 15.9099 10.1628 15.9099 9.4576C15.9099 8.75237 16.4816 8.18066 17.1868 8.18066C17.892 8.18066 18.4637 8.75237 18.4637 9.4576Z" fill="black"/>
<path fill-rule="evenodd" clip-rule="evenodd" d="M19.2469 11.438C20.0815 11.8701 20.4078 12.897 19.9756 13.7316L18.4644 12.9492C19.9756 13.7316 19.9755 13.732 19.9753 13.7323L19.9741 13.7346L19.9722 13.7383L19.9671 13.748C19.9632 13.7555 19.9581 13.765 19.952 13.7764C19.9398 13.7991 19.9234 13.8295 19.9028 13.8664C19.8619 13.94 19.8042 14.0407 19.7317 14.16C19.5886 14.3956 19.3787 14.7186 19.1165 15.054C18.8596 15.3825 18.5184 15.7674 18.1046 16.0943C17.7047 16.4103 17.1125 16.7711 16.3671 16.8496C15.6089 16.9295 14.9209 16.6788 14.466 16.4658C13.9733 16.2351 13.5143 15.9326 13.1448 15.661C12.7683 15.3843 12.4418 15.1078 12.2115 14.9031C12.0953 14.7997 12.0009 14.7122 11.9338 14.6489C11.9002 14.6171 11.8733 14.5913 11.8537 14.5724C11.844 14.563 11.836 14.5552 11.83 14.5493L11.8224 14.5419L11.8182 14.5377C11.818 14.5375 11.8178 14.5373 13.0148 13.3277L11.8178 14.5373C11.1497 13.8762 11.1441 12.7987 11.8052 12.1307C12.4658 11.4632 13.5421 11.457 14.2102 12.1165C14.2101 12.1164 14.21 12.1163 14.21 12.1163M14.2102 12.1165C14.2104 12.1167 14.2107 12.117 14.211 12.1173L14.2208 12.1269C14.2309 12.1366 14.2476 12.1526 14.2704 12.1741C14.316 12.2172 14.3853 12.2815 14.4731 12.3596C14.6508 12.5176 14.8932 12.7222 15.1605 12.9186C15.4348 13.1202 15.6944 13.2829 15.9091 13.3834C15.9426 13.3991 15.9718 13.4117 15.9969 13.4219C16.1217 13.3229 16.2737 13.1643 16.435 12.9578C16.5921 12.757 16.7265 12.5516 16.8229 12.3929C16.8702 12.315 16.9061 12.2521 16.9288 12.2114C16.94 12.1911 16.9479 12.1766 16.9521 12.1688L16.9554 12.1626C17.3888 11.331 18.4137 11.0066 19.2469 11.438" fill="black"/>
<path d="M36.831 9.27639C36.8208 9.29675 36.8157 9.31711 36.8157 9.33747C36.8157 9.33747 36.8157 9.34256 36.8157 9.35274V9.368V9.38327L36.8004 9.39854V9.41381V9.42908L36.8157 9.44435V9.45961V9.47488V9.49015V9.50542V9.52069L36.831 9.53596V9.55122V9.56649H36.8462V9.58176L36.8615 9.59703V9.6123H36.8768V9.62757V9.64284H36.892V9.6581H36.9073V9.67337H36.9226V9.68864H36.9378V9.70391H36.9531V9.71918H36.9684L36.9836 9.73445H36.9989H37.0142V9.74971H37.0294V9.76498H37.0447H37.06H37.0752L37.0905 9.78025H37.1058H37.1211L38.5563 10.0398C39.2994 10.162 39.8287 10.2027 40.1442 10.162C40.4699 10.1212 40.6633 10.0195 40.7244 9.85659C40.7855 9.68355 40.8007 9.47488 40.7702 9.23059C40.7295 8.90486 40.7753 8.55878 40.9076 8.19233C41.04 7.81571 41.4522 7.46454 42.1444 7.13881C42.348 7.07774 42.5057 7.05229 42.6177 7.06247C42.7297 7.07265 42.8823 7.11336 43.0757 7.18461C43.2997 7.30676 43.4575 7.42382 43.5491 7.53579C43.6407 7.63758 43.7425 7.79535 43.8544 8.00911C44.1191 8.85397 44.1242 9.61739 43.8697 10.2994C43.6254 10.9814 43.2691 11.6685 42.8009 12.3606C42.7297 12.4828 42.6533 12.61 42.5719 12.7423C42.2258 13.1698 41.9662 13.4905 41.7932 13.7042C41.6202 13.9282 41.4878 14.0961 41.3962 14.2081C41.3148 14.3201 41.2283 14.427 41.1367 14.5287C41.045 14.6305 40.9178 14.773 40.7549 14.9563C40.5717 15.1598 40.2816 15.4907 39.8846 15.9487C39.6912 16.1523 39.5131 16.3457 39.3502 16.5289C38.9126 16.9971 38.5308 17.4501 38.2051 17.8878C37.8896 18.3255 37.5893 18.8955 37.3043 19.5979C37.2839 19.7302 37.2585 19.8778 37.2279 20.0406C37.1261 20.5801 37.06 21.1603 37.0294 21.7813C36.9989 22.4022 37.1109 22.9569 37.3653 23.4455L37.3501 23.4302L37.7929 24.0868C37.915 24.1988 38.3934 24.2649 39.2281 24.2853C40.0628 24.3158 41.0196 24.3209 42.0986 24.3005C43.1775 24.2904 44.1293 24.27 44.9538 24.2395C45.7884 24.2191 46.2618 24.2038 46.3737 24.1937C46.5671 24.153 46.6944 23.9596 46.7554 23.6135C46.8267 23.2776 46.8572 22.8908 46.8471 22.4531C46.8369 22.0052 46.8114 21.6133 46.7707 21.2774C46.7402 20.9415 46.7198 20.7634 46.7096 20.743C46.618 20.6005 46.2465 20.514 45.595 20.4834C44.9538 20.4427 44.2209 20.4376 43.3964 20.4682C42.5719 20.4885 41.8492 20.5191 41.2283 20.5598C41.1163 20.5598 41.0094 20.5649 40.9076 20.575C41.2435 19.9745 41.7474 19.2772 42.4192 18.4833C43.091 17.6791 43.7425 16.9259 44.3736 16.2235C44.8825 15.6637 45.2642 15.2209 45.5187 14.8952L46.9387 12.498C47.4985 11.1849 47.7275 9.8515 47.6257 8.4977C47.5341 7.1439 47.0914 5.98859 46.2974 5.03176C45.5034 4.07494 44.3481 3.53546 42.8315 3.41331C41.61 3.35223 40.6073 3.60162 39.8236 4.16146C39.0398 4.71113 38.4138 5.44401 37.9455 6.36012C37.4875 7.27623 37.116 8.24832 36.831 9.27639Z" fill="black"/>
<path d="M50.4504 13.8569C50.4504 13.8671 50.4555 13.8722 50.4657 13.8722C50.4759 13.8722 50.486 13.8773 50.4962 13.8875C50.9848 14.0707 51.453 14.0249 51.9009 13.75C52.4709 13.3429 52.7559 12.8797 52.7559 12.3606C52.7661 11.8313 52.6033 11.358 52.2674 10.9407C51.9416 10.5233 51.5447 10.2638 51.0764 10.162C50.6184 10.05 50.2061 10.2078 49.8397 10.6353C49.3307 11.2766 49.1068 11.8771 49.1679 12.437C49.2391 12.9968 49.6463 13.465 50.3893 13.8417C50.3995 13.8417 50.4097 13.8467 50.4199 13.8569C50.4301 13.8569 50.4402 13.8569 50.4504 13.8569ZM50.4504 18.5596C50.4504 18.5596 50.4555 18.5596 50.4657 18.5596C50.4759 18.5596 50.486 18.5647 50.4962 18.5749C50.9848 18.7581 51.453 18.7072 51.9009 18.4222C52.4709 18.015 52.7559 17.5519 52.7559 17.0328C52.7661 16.5136 52.6033 16.0454 52.2674 15.6281C51.9416 15.2107 51.5447 14.9512 51.0764 14.8494C50.6184 14.7374 50.2061 14.8952 49.8397 15.3227C49.3307 15.964 49.1068 16.5645 49.1679 17.1244C49.2391 17.6842 49.6463 18.1525 50.3893 18.5291C50.4097 18.5393 50.4301 18.5494 50.4504 18.5596Z" fill="black"/>
<path d="M54.2217 9.0321V9.04737V9.06263L54.2065 9.0779V9.09317V9.10844V9.12371V9.13898V9.15424L54.2217 9.16951V9.18478V9.20005V9.21532V9.23059H54.237V9.24586V9.26112H54.2523V9.27639V9.29166L54.2675 9.30693V9.3222L54.2828 9.33747H54.2981V9.35274L54.3133 9.368L54.3286 9.38327L54.3439 9.39854L54.3591 9.41381H54.3744V9.42908H54.3897H54.4049V9.44435H54.4202L54.4355 9.45961C54.4457 9.45961 54.4507 9.45961 54.4507 9.45961C54.4609 9.45961 54.466 9.45961 54.466 9.45961C54.466 9.45961 54.4711 9.4647 54.4813 9.47488H54.4966L57.0922 10.0856C57.2856 10.106 57.4434 9.99401 57.5655 9.74971C57.6877 9.50542 57.7996 9.20514 57.9014 8.84888C58.0643 8.24832 58.2933 7.75464 58.5885 7.36784C58.8939 6.98104 59.357 6.9963 59.9779 7.41364C60.6599 8.12617 61.0315 8.94558 61.0925 9.87186C61.1536 10.7981 60.8889 11.6634 60.2986 12.4675C59.9016 12.4777 59.5708 12.4879 59.3061 12.498C58.7056 12.4879 58.3442 12.5489 58.2221 12.6813C58.0999 12.8034 58.0745 13.1546 58.1457 13.7348C58.1559 13.918 58.1661 14.1267 58.1763 14.3608C58.1966 14.6051 58.2068 14.8188 58.2068 15.0021C58.2068 15.5823 58.2729 15.9283 58.4053 16.0403C58.5376 16.1523 58.8939 16.1676 59.4741 16.0861C59.7082 16.0658 59.9932 16.0454 60.3291 16.025C60.3393 16.0454 60.3495 16.0607 60.3596 16.0709C60.4004 16.1217 60.4258 16.1625 60.436 16.193C60.4563 16.2134 60.4716 16.2388 60.4818 16.2693C60.5021 16.2999 60.5276 16.3406 60.5581 16.3915C60.5887 16.4526 60.6396 16.5442 60.7108 16.6663C61.0467 17.4501 61.174 18.127 61.0925 18.697C61.0111 19.267 60.6039 19.8116 59.871 20.3307C59.1076 20.6768 58.5529 20.7786 58.2068 20.6361C57.8709 20.4834 57.6571 20.2035 57.5655 19.7964C57.4841 19.3892 57.4434 18.9668 57.4434 18.5291C57.4332 18.1219 57.3976 17.8064 57.3365 17.5824C57.2856 17.4806 57.0922 17.389 56.7563 17.3076C56.4306 17.2262 56.0539 17.1702 55.6264 17.1396C55.1989 17.0989 54.8223 17.104 54.4966 17.1549C54.1708 17.2058 53.9876 17.3229 53.9469 17.5061C53.8146 18.7072 53.9367 19.8422 54.3133 20.911C54.7001 21.9696 55.3669 22.8602 56.3135 23.5829C57.7284 24.2751 59.0618 24.4176 60.3138 24.0104C61.576 23.6135 62.5939 22.8348 63.3675 21.6744C64.1513 20.514 64.5228 19.1449 64.4821 17.5672C64.4109 17.1905 64.3549 16.9157 64.3142 16.7427C64.2836 16.5798 64.2582 16.4577 64.2378 16.3762C64.2175 16.2846 64.192 16.1981 64.1615 16.1167C64.1309 16.0352 64.0851 15.9233 64.0241 15.7808C63.963 15.6179 63.8714 15.3787 63.7492 15.0631C63.6678 14.9206 63.6067 14.8138 63.566 14.7425C63.5355 14.6712 63.51 14.6204 63.4897 14.5898C63.4693 14.5491 63.449 14.5135 63.4286 14.4829C63.4082 14.4422 63.3777 14.3913 63.337 14.3302C63.3166 14.3099 63.2963 14.2794 63.2759 14.2386C63.4388 13.9536 63.566 13.7297 63.6576 13.5668C63.7696 13.3836 63.851 13.2462 63.9019 13.1546C63.9528 13.0528 63.9935 12.951 64.0241 12.8492C64.0546 12.7372 64.0953 12.5795 64.1462 12.3759C64.1971 12.1621 64.2836 11.8364 64.4058 11.3987L64.4516 9.50542C64.2887 7.9175 63.7645 6.5637 62.8789 5.44401C61.9934 4.31415 60.9093 3.67796 59.6268 3.53546C58.3544 3.39295 57.0617 4.01387 55.7486 5.39821C55.5145 5.79519 55.3363 6.10055 55.2142 6.31431C55.0818 6.53825 54.9851 6.71129 54.9241 6.83344C54.863 6.94541 54.8121 7.06247 54.7714 7.18461C54.7307 7.30676 54.6798 7.48489 54.6187 7.71901C54.5373 7.98366 54.41 8.401 54.237 8.97102C54.237 8.9812 54.2319 8.99138 54.2217 9.00156C54.2217 9.01174 54.2217 9.02192 54.2217 9.0321Z" fill="black"/>
<path d="M71.643 8.84888H71.6583V8.86414V8.87941H71.6736L71.6888 8.89468V8.90995H71.7041V8.92522H71.7194L71.7346 8.94049C71.7448 8.95067 71.755 8.95576 71.7652 8.95576V8.97102H71.7804L71.7957 8.98629H71.811V9.00156H71.8262H71.8415H71.8568L71.8721 9.01683H71.8873H71.9026H71.9179H71.9331V9.0321H71.9484H71.9637H71.9789H71.9942V9.01683H72.0095H72.0247H72.04H72.0553H72.0705V9.00156C72.0807 9.00156 72.0858 9.00156 72.0858 9.00156C72.1062 9.00156 72.1214 8.99647 72.1316 8.98629H72.1469L73.3684 8.34502C73.5821 8.46716 73.7399 8.58931 73.8417 8.71146C73.9435 8.83361 74.0605 9.00665 74.1929 9.23059C74.203 9.26112 74.2183 9.28657 74.2387 9.30693C74.8596 11.1799 75.0886 12.9612 74.9257 14.6509C74.7731 16.3304 74.2997 18.0507 73.5058 19.8116C73.4752 19.8625 73.4447 19.9134 73.4142 19.9643C73.2004 20.3206 72.9714 20.6005 72.7271 20.8041C72.493 21.0077 72.1672 21.0484 71.7499 20.9262C71.6278 20.8651 71.5361 20.8193 71.4751 20.7888C71.4242 20.7583 71.3835 20.7379 71.3529 20.7277C71.3224 20.7074 71.2919 20.687 71.2613 20.6667C71.241 20.6463 71.2053 20.6158 71.1544 20.575C71.1035 20.5343 71.0221 20.4631 70.9101 20.3613C70.1773 19.3129 69.7192 18.2237 69.536 17.0938C69.3629 15.9538 69.368 14.7985 69.5512 13.6279C69.7345 12.4471 69.9991 11.2766 70.3452 10.1162C70.4368 9.93294 70.503 9.80061 70.5437 9.71918C70.5641 9.6581 70.5844 9.6123 70.6048 9.58176C70.6251 9.55122 70.6455 9.52578 70.6658 9.50542C70.6862 9.47488 70.7167 9.42908 70.7575 9.368C70.7982 9.32729 70.8491 9.26112 70.9101 9.16951C70.9203 9.16951 70.9356 9.15933 70.9559 9.13898C71.0068 9.09826 71.0781 9.04737 71.1697 8.98629C71.2613 8.91504 71.3478 8.86414 71.4293 8.83361C71.5209 8.79289 71.5921 8.79798 71.643 8.84888ZM67.0014 8.71146C66.9912 8.72164 66.9811 8.73182 66.9709 8.742C66.9709 8.742 66.9709 8.74709 66.9709 8.75727C66.9607 8.77762 66.9505 8.79289 66.9403 8.80307C66.4518 10.1772 66.1362 11.3122 65.9937 12.2079C65.8614 13.0935 65.7901 14.2692 65.7799 15.7349C65.7799 15.7655 65.7799 15.8011 65.7799 15.8418C65.8919 17.4297 66.0853 18.6614 66.3601 19.5368C66.635 20.4122 67.2661 21.4962 68.2534 22.789C68.5283 23.0129 68.7318 23.1809 68.8642 23.2928C68.9761 23.3946 69.0627 23.471 69.1237 23.5219C69.195 23.5728 69.2662 23.6186 69.3375 23.6593C69.4189 23.7 69.5309 23.756 69.6734 23.8272C69.8261 23.9087 70.0551 24.0257 70.3605 24.1784C71.8364 24.6466 73.0528 24.6365 74.0096 24.1479C74.9766 23.6695 75.8724 22.7992 76.6969 21.537L77.6588 19.3688C78.0252 18.3408 78.2899 17.1142 78.4528 15.6891C78.6258 14.2641 78.6309 12.8187 78.468 11.3529C78.3153 9.87695 77.9387 8.55369 77.3382 7.3831C76.7376 6.21252 75.8469 5.36767 74.6662 4.84854C74.0758 4.6246 73.3684 4.54826 72.5439 4.61952C71.7295 4.69077 70.9356 4.85872 70.162 5.12337C69.3986 5.38803 68.798 5.6934 68.3603 6.03948C67.9328 6.38557 67.8157 6.72656 68.0091 7.06247C67.9379 7.15408 67.8717 7.23551 67.8106 7.30676C67.719 7.41873 67.6478 7.51034 67.5969 7.58159C67.5562 7.64267 67.5155 7.70883 67.4747 7.78008C67.434 7.84116 67.3831 7.93277 67.3221 8.05492C67.2508 8.19742 67.1439 8.41627 67.0014 8.71146Z" fill="black"/>
</svg>
