<svg width="65" height="64" viewBox="0 0 65 64" fill="none" xmlns="http://www.w3.org/2000/svg">
<path d="M57.5001 46.1201C57.5623 48.6013 57.3137 51.0806 56.7601 53.5001C56.5265 54.3792 56.0433 55.1718 55.369 55.7823C54.6947 56.3927 53.858 56.7948 52.9601 56.9401C52.702 56.9799 52.4412 57 52.1801 57.0001C51.5406 56.9915 50.9094 56.854 50.3244 56.5956C49.7394 56.3372 49.2126 55.9634 48.7756 55.4965C48.3386 55.0295 48.0003 54.4792 47.7811 53.8784C47.562 53.2776 47.4664 52.6387 47.5001 52.0001C47.5001 51.2701 47.5001 50.4601 47.5001 49.5901C47.5673 43.4277 46.5519 37.3013 44.5001 31.4901C44.7515 31.3881 44.9796 31.2359 45.1704 31.043C45.3611 30.85 45.5107 30.6203 45.6098 30.3677C45.709 30.1151 45.7557 29.845 45.7472 29.5738C45.7386 29.3025 45.675 29.0359 45.5601 28.7901C42.3701 21.5101 37.6801 17.3901 32.5001 17.3901C27.3201 17.3901 22.6301 21.5101 19.4401 28.7801C19.3255 29.0346 19.2675 29.311 19.2701 29.5901C19.2612 29.9923 19.3739 30.3878 19.5933 30.725C19.8127 31.0621 20.1288 31.3253 20.5001 31.4801C18.4483 37.2913 17.4328 43.4176 17.5001 49.5801C17.5001 50.4501 17.5001 51.2601 17.5501 51.9901C17.5878 52.699 17.4661 53.4074 17.194 54.0631C16.9219 54.7188 16.5062 55.3052 15.9776 55.7791C15.449 56.253 14.8209 56.6024 14.1395 56.8016C13.4581 57.0008 12.7407 57.0447 12.0401 56.9301C11.1414 56.785 10.3041 56.382 9.63008 55.7701C8.95177 55.1681 8.46791 54.3779 8.24008 53.5001C7.68642 51.0806 7.43782 48.6013 7.50008 46.1201C7.47779 41.1738 8.15104 36.2489 9.50008 31.4901H9.55008C10.0433 31.6302 10.5716 31.5755 11.0257 31.3373C11.4797 31.0991 11.825 30.6956 11.9901 30.2101C15.9501 18.5301 23.8501 11.0801 32.5001 11.0801C41.1501 11.0801 49.0501 18.5301 52.9901 30.2201C53.1552 30.7056 53.5004 31.1091 53.9545 31.3473C54.4086 31.5855 54.9368 31.6402 55.4301 31.5001C56.8019 36.2523 57.4987 41.1738 57.5001 46.1201Z" fill="#ED9964"/>
<path d="M44.5 31.4796H44.44C43.959 31.6604 43.4268 31.6491 42.9539 31.448C42.4809 31.2469 42.1036 30.8715 41.9 30.3996C39.42 24.7496 35.97 21.3996 32.5 21.3996C29.03 21.3996 25.58 24.7096 23.1 30.3996C22.8965 30.8715 22.5191 31.2469 22.0462 31.448C21.5732 31.6491 21.0411 31.6604 20.56 31.4796H20.5C20.1287 31.3249 19.8127 31.0617 19.5933 30.7245C19.3738 30.3874 19.2612 29.9918 19.27 29.5896C19.2674 29.3105 19.3254 29.0342 19.44 28.7796C22.63 21.5096 27.32 17.3896 32.5 17.3896C37.68 17.3896 42.37 21.5096 45.56 28.7796C45.6749 29.0255 45.7385 29.2921 45.7471 29.5633C45.7557 29.8346 45.7089 30.1047 45.6098 30.3573C45.5106 30.6098 45.3611 30.8396 45.1703 31.0326C44.9795 31.2255 44.7515 31.3776 44.5 31.4796Z" fill="#CA7C4B"/>
<path d="M55.5001 31.48C55.0069 31.6201 54.4787 31.5654 54.0246 31.3272C53.5705 31.089 53.2252 30.6855 53.0602 30.2C49.0501 18.53 41.1501 11.08 32.5001 11.08C23.8501 11.08 15.9501 18.53 12.0101 30.22C11.8451 30.7055 11.4998 31.109 11.0457 31.3472C10.5916 31.5854 10.0634 31.6401 9.57015 31.5H9.52015C9.10907 31.3685 8.75157 31.1075 8.50104 30.756C8.25052 30.4046 8.12041 29.9815 8.13015 29.55C8.13341 29.3257 8.1705 29.1032 8.24015 28.89C12.7501 15.51 22.1101 7 32.5001 7C42.8901 7 52.2501 15.51 56.7601 28.87C56.9362 29.3833 56.9027 29.9454 56.6668 30.4341C56.4308 30.9228 56.0116 31.2986 55.5001 31.48Z" fill="#FFD5BB"/>
</svg>
