<svg width="65" height="64" viewBox="0 0 65 64" fill="none" xmlns="http://www.w3.org/2000/svg">
<path d="M36.7399 40.48L21.8899 55.33L9.16992 42.61L21.4999 30.29L29.2699 33.45C30.4804 33.9779 31.5195 34.8334 32.2699 35.92C32.3599 36.03 32.4499 36.14 32.5499 36.24L36.7399 40.48Z" fill="#DFEBA3"/>
<path d="M48.26 29.0008L40.98 36.2708L36.74 32.0008C36.3542 31.6169 35.8711 31.3452 35.3426 31.2148C34.8142 31.0845 34.2602 31.1004 33.74 31.2608L24.29 27.4608L35.5 16.2408C36.3301 15.4104 37.3855 14.8417 38.5355 14.6053C39.6856 14.3689 40.8798 14.4751 41.97 14.9108L45.37 16.2708L48.2 19.1008L49.56 22.5008C50.0059 23.5921 50.1203 24.7906 49.8891 25.9466C49.6579 27.1026 49.0913 28.1649 48.26 29.0008Z" fill="#DFEBA3"/>
<path d="M9.16153 42.6037L21.8894 55.3316C22.2645 55.7067 22.4752 56.2154 22.4752 56.7458C22.4752 57.2762 22.2645 57.7849 21.8894 58.16L19.7681 60.2813L4.21178 44.725L6.3331 42.6037C6.51882 42.4179 6.7393 42.2706 6.98195 42.1701C7.2246 42.0696 7.48467 42.0179 7.74732 42.0179C8.00996 42.0179 8.27003 42.0696 8.51268 42.1701C8.75533 42.2706 8.97581 42.4179 9.16153 42.6037Z" fill="#C7D584"/>
<path d="M57.4131 9.90768L54.5846 7.07925C53.8036 6.2982 52.5372 6.2982 51.7562 7.07925L48.2207 10.6148C47.4396 11.3958 47.4396 12.6622 48.2207 13.4432L51.0491 16.2716C51.8301 17.0527 53.0965 17.0527 53.8775 16.2716L57.4131 12.7361C58.1941 11.9551 58.1941 10.6887 57.4131 9.90768Z" fill="#DFEBA3"/>
<path d="M51.064 16.2757L48.2356 13.4473L45.4072 16.2757L48.2356 19.1041L51.064 16.2757Z" fill="#C7D584"/>
<path d="M56.89 53.3801C56.8935 53.976 56.7194 54.5594 56.39 55.0559C56.0606 55.5525 55.5908 55.9397 55.0405 56.1682C54.4901 56.3967 53.8842 56.4561 53.3 56.3389C52.7157 56.2217 52.1796 55.9332 51.76 55.5101L36.76 40.5101L32.5 36.2401C32.4 36.1401 32.31 36.0301 32.22 35.9201C31.4696 34.8334 30.4305 33.978 29.22 33.4501L21.5 30.2901L20.5 29.8801L4.75002 14.1501C4.56377 13.9627 4.45923 13.7093 4.45923 13.4451C4.45923 13.1809 4.56377 12.9275 4.75002 12.7401L6.17002 11.3201C6.35738 11.1338 6.61084 11.0293 6.87502 11.0293C7.13921 11.0293 7.39266 11.1338 7.58002 11.3201L10.41 14.1501L13.24 17.0001L16.06 19.8301L18.89 22.6601L23.3 27.0701L24.3 27.4801L33.75 31.2801C34.2702 31.1197 34.8241 31.1038 35.3526 31.2342C35.8811 31.3645 36.3641 31.6362 36.75 32.0201L40.99 36.2601L55.99 51.2601C56.2723 51.5367 56.4971 51.8665 56.6516 52.2303C56.806 52.5941 56.8871 52.9849 56.89 53.3801Z" fill="#C7D584"/>
<path d="M16.6501 7.08045C16.6478 7.61003 16.4357 8.1171 16.0601 8.49045L10.4101 14.1505L7.58008 11.3205L13.2401 5.67045C13.6148 5.29795 14.1217 5.08887 14.6501 5.08887C15.1784 5.08887 15.6854 5.29795 16.0601 5.67045C16.4357 6.0438 16.6478 6.55088 16.6501 7.08045Z" fill="#A1D8DF"/>
<path d="M16.6501 7.08045C16.6478 7.61003 16.4357 8.1171 16.0601 8.49045L10.4101 14.1505L7.58008 11.3205L8.58008 10.3205L13.2401 5.67045C13.6148 5.29795 14.1217 5.08887 14.6501 5.08887C15.1784 5.08887 15.6854 5.29795 16.0601 5.67045C16.1865 5.78799 16.2914 5.92675 16.3701 6.08045C16.555 6.3811 16.6519 6.72751 16.6501 7.08045Z" fill="#BACA69"/>
<path d="M19.4999 9.90087C19.5001 10.1648 19.4481 10.4261 19.3468 10.6698C19.2456 10.9136 19.0971 11.1348 18.9099 11.3209L13.2399 17.0009L10.4099 14.1509L11.4099 13.1509L16.0599 8.49087C16.2457 8.30492 16.4662 8.1574 16.709 8.05675C16.9518 7.9561 17.2121 7.9043 17.4749 7.9043C17.7377 7.9043 17.998 7.9561 18.2408 8.05675C18.4836 8.1574 18.7042 8.30492 18.8899 8.49087C19.0167 8.61195 19.1216 8.75404 19.1999 8.91087C19.3905 9.20632 19.4945 9.54931 19.4999 9.90087Z" fill="#BACA69"/>
<path d="M22.3 12.7405C22.3004 13.2686 22.0919 13.7755 21.72 14.1505L16.07 19.8105L13.24 17.0005L14.24 16.0005L18.89 11.3405C19.0757 11.1545 19.2963 11.007 19.5391 10.9064C19.7819 10.8057 20.0422 10.7539 20.305 10.7539C20.5678 10.7539 20.8281 10.8057 21.0709 10.9064C21.3137 11.007 21.5342 11.1545 21.72 11.3405C21.8437 11.4642 21.9482 11.6058 22.03 11.7605C22.2029 12.0584 22.2959 12.396 22.3 12.7405Z" fill="#BACA69"/>
<path d="M25.1401 15.5601C25.1429 15.8273 25.0922 16.0925 24.9909 16.3398C24.8895 16.5871 24.7396 16.8116 24.5501 17L18.9001 22.64L16.0701 19.81L17.0701 18.81L21.7301 14.15C21.9158 13.9641 22.1364 13.8166 22.3792 13.7159C22.622 13.6153 22.8822 13.5635 23.1451 13.5635C23.4079 13.5635 23.6682 13.6153 23.9109 13.7159C24.1537 13.8166 24.3743 13.9641 24.5601 14.15C24.6868 14.2711 24.7917 14.4132 24.8701 14.57C25.0501 14.8686 25.1436 15.2114 25.1401 15.5601Z" fill="#BACA69"/>
<path d="M16.3701 6.08045C16.2914 6.23415 16.1865 6.37291 16.0601 6.49045L12.2401 10.3205C11.7545 10.8053 11.0963 11.0776 10.4101 11.0776C9.72386 11.0776 9.06568 10.8053 8.58008 10.3205L13.2401 5.67045C13.6148 5.29795 14.1217 5.08887 14.6501 5.08887C15.1784 5.08887 15.6854 5.29795 16.0601 5.67045C16.1865 5.78799 16.2914 5.92675 16.3701 6.08045Z" fill="#DFEBA3"/>
<path d="M19.1999 8.91087C19.118 9.06246 19.0134 9.20071 18.8899 9.32087L15.0699 13.1509C14.5843 13.6357 13.9261 13.9081 13.2399 13.9081C12.5537 13.9081 11.8955 13.6357 11.4099 13.1509L16.0599 8.49087C16.2457 8.30492 16.4662 8.1574 16.709 8.05675C16.9518 7.9561 17.2121 7.9043 17.4749 7.9043C17.7377 7.9043 17.998 7.9561 18.2408 8.05675C18.4836 8.1574 18.7042 8.30492 18.8899 8.49087C19.0167 8.61195 19.1216 8.75404 19.1999 8.91087Z" fill="#DFEBA3"/>
<path d="M22.03 11.7407C21.948 11.8922 21.8435 12.0305 21.72 12.1507L17.9 16.0007C17.4144 16.4855 16.7562 16.7578 16.07 16.7578C15.3838 16.7578 14.7256 16.4855 14.24 16.0007L18.82 11.4107C19.1597 11.0517 19.6167 10.8262 20.1082 10.7749C20.5997 10.7235 21.0934 10.8497 21.5 11.1307C21.7211 11.2907 21.9024 11.4994 22.03 11.7407Z" fill="#DFEBA3"/>
<path d="M24.8601 14.5703C24.7781 14.7219 24.6736 14.8601 24.5501 14.9803L20.7301 18.8003C20.4894 19.0419 20.2035 19.2336 19.8886 19.3644C19.5737 19.4951 19.236 19.5625 18.8951 19.5625C18.5541 19.5625 18.2165 19.4951 17.9016 19.3644C17.5867 19.2336 17.3007 19.0419 17.0601 18.8003L21.7201 14.1403C21.9058 13.9543 22.1264 13.8068 22.3692 13.7062C22.612 13.6055 22.8722 13.5537 23.1351 13.5537C23.3979 13.5537 23.6581 13.6055 23.9009 13.7062C24.1437 13.8068 24.3643 13.9543 24.5501 14.1403C24.6778 14.2644 24.7827 14.4099 24.8601 14.5703Z" fill="#DFEBA3"/>
</svg>
