<svg width="64" height="64" viewBox="0 0 64 64" fill="none" xmlns="http://www.w3.org/2000/svg">
<path d="M53.58 31.52C51.4378 34.2015 49.9854 37.3672 49.35 40.74C48.53 44.74 47.52 49.63 46.82 53.02C46.5882 54.1296 45.9862 55.1275 45.1127 55.85C44.2393 56.5726 43.1463 56.9769 42.0129 56.9966C40.8795 57.0164 39.773 56.6505 38.8749 55.9588C37.9768 55.2671 37.3404 54.2908 37.07 53.19L34.91 44.37C34.7474 43.7213 34.3728 43.1456 33.8456 42.7342C33.3183 42.3228 32.6688 42.0993 32 42.0993C31.3313 42.0993 30.6817 42.3228 30.1545 42.7342C29.6272 43.1456 29.2526 43.7213 29.09 44.37L26.93 53.19C26.6575 54.2905 26.0191 55.2657 25.1196 55.9556C24.22 56.6456 23.1127 57.0094 21.9792 56.9873C20.8457 56.9652 19.7533 56.5586 18.8813 55.8341C18.0093 55.1096 17.4094 54.1103 17.18 53C16.5 49.68 15.51 44.89 14.71 41L14.65 40.74C14.0146 37.3672 12.5623 34.2015 10.42 31.52C8.20548 28.8422 6.99582 25.4749 7.00001 22C7.00001 21.56 7.00001 21.11 7.06001 20.66C7.38877 17.1659 8.92592 13.8959 11.4066 11.4134C13.8873 8.93088 17.1562 7.39133 20.65 7.06C21.1 7 21.55 7 22 7C23.6569 6.99917 25.3026 7.27288 26.87 7.81C30.1985 8.9699 33.8215 8.9699 37.15 7.81C38.7111 7.27505 40.3498 7.00138 42 7C42.44 7 42.89 7 43.34 7.06C46.0254 7.31411 48.5936 8.28289 50.7778 9.86563C52.962 11.4484 54.6823 13.5873 55.76 16.06C56.3932 17.5105 56.7882 19.0537 56.93 20.63C57.2957 24.56 56.0913 28.475 53.58 31.52Z" fill="#A1D8DF"/>
<path d="M55.77 16.08C53.7842 23.2456 49.5042 29.5627 43.5855 34.0636C37.6667 38.5645 30.4357 41.0011 23 41C20.8189 40.9846 18.6833 40.375 16.8227 39.2368C14.9621 38.0986 13.4469 36.4748 12.44 34.54C11.8762 33.4751 11.2061 32.47 10.44 31.54C8.21388 28.8596 6.99677 25.4843 7.00001 22C7.00001 21.56 7.00001 21.11 7.06001 20.66C7.38877 17.1659 8.92591 13.8959 11.4066 11.4134C13.8873 8.93088 17.1562 7.39133 20.65 7.06C21.1 7 21.55 7 22 7C23.6569 6.99917 25.3026 7.27288 26.87 7.81C30.1985 8.9699 33.8215 8.9699 37.15 7.81C38.7111 7.27505 40.3498 7.00138 42 7C42.44 7 42.89 7 43.34 7.06C46.0293 7.31423 48.6011 8.28521 50.7874 9.87172C52.9737 11.4582 54.6943 13.6022 55.77 16.08Z" fill="#D1E6E9"/>
<path d="M32.0001 16.0001C27.9577 15.9256 23.9979 14.8429 20.4801 12.8501C20.3443 12.7982 20.2215 12.7173 20.1202 12.6131C20.0188 12.5089 19.9415 12.3838 19.8934 12.2466C19.8453 12.1095 19.8278 11.9635 19.8419 11.8188C19.856 11.6741 19.9015 11.5343 19.9752 11.409C20.0489 11.2837 20.149 11.176 20.2686 11.0934C20.3882 11.0107 20.5244 10.9551 20.6676 10.9305C20.8109 10.9058 20.9578 10.9127 21.0981 10.9507C21.2384 10.9886 21.3688 11.0566 21.4801 11.1501C24.7048 12.9366 28.3146 13.9145 32.0001 14.0001C35.6726 13.9125 39.269 12.9345 42.4801 11.1501C42.5914 11.0566 42.7218 10.9886 42.8621 10.9507C43.0024 10.9127 43.1493 10.9058 43.2926 10.9305C43.4358 10.9551 43.572 11.0107 43.6916 11.0934C43.8111 11.176 43.9113 11.2837 43.985 11.409C44.0587 11.5343 44.1042 11.6741 44.1183 11.8188C44.1324 11.9635 44.1149 12.1095 44.0668 12.2466C44.0187 12.3838 43.9413 12.5089 43.84 12.6131C43.7387 12.7173 43.6159 12.7982 43.4801 12.8501C39.9741 14.8365 36.0289 15.919 32.0001 16.0001Z" fill="#68C7D3"/>
</svg>
